<svg width="103" height="113" viewBox="0 0 103 113" fill="none" xmlns="http://www.w3.org/2000/svg">
<path d="M102.109 113H28.8281C26.9531 113 24.9219 112.792 22.7344 112.375C20.599 111.906 18.4635 111.203 16.3281 110.266C14.2448 109.328 12.2396 108.13 10.3125 106.672C8.38542 105.161 6.66667 103.365 5.15625 101.281C3.69792 99.1458 2.52604 96.6979 1.64062 93.9375C0.755208 91.125 0.3125 87.974 0.3125 84.4844V29.4844C0.3125 27.6094 0.520833 25.6042 0.9375 23.4688C1.40625 21.2812 2.10938 19.1458 3.04688 17.0625C3.98438 14.9271 5.20833 12.8958 6.71875 10.9688C8.22917 9.04167 10.026 7.34896 12.1094 5.89062C14.2448 4.38021 16.6927 3.18229 19.4531 2.29688C22.2135 1.41146 25.3385 0.96875 28.8281 0.96875H102.109V21.2812H28.8281C26.1719 21.2812 24.1406 21.9844 22.7344 23.3906C21.3281 24.7969 20.625 26.8802 20.625 29.6406V84.4844C20.625 87.0885 21.3281 89.1198 22.7344 90.5781C24.1927 91.9844 26.224 92.6875 28.8281 92.6875H102.109V113Z" fill="#009DF8"/>
<path d="M47.083 54.2969H69.373V39.9902H75.7207V75H69.373V60.6934H47.083V75H40.7354V39.9902H47.083V54.2969Z" fill="white"/>
</svg>
